<svg xmlns="http://www.w3.org/2000/svg" xmlns:xlink="http://www.w3.org/1999/xlink" version="1.1" width="696" height="700" name="nd2.svg" y="0" viewBox="0 0 696 700">
<polyline points="696,700 0,700 0,0 696,0 696,700" fill="white" />
<text x="466" y="47" fill="#232629" font-size="16" font-family="Helvetica" > Melozone fusca</text>
<polyline points="418,57 418,39 460,39" fill="none" stroke="#000000" stroke-width="1" stroke-linecap="square"/>
<text x="466" y="83" fill="#232629" font-size="16" font-family="Helvetica" > Oriturus superciliosus</text>
<polyline points="418,58 418,75 460,75" fill="none" stroke="#000000" stroke-width="1" stroke-linecap="square"/>
<polyline points="376,84 376,57 418,57" fill="none" stroke="#000000" stroke-width="1" stroke-linecap="square"/>
<text x="466" y="119" fill="#232629" font-size="16" font-family="Helvetica" > Quiscalus mexicanus</text>
<polyline points="376,85 376,111 460,111" fill="none" stroke="#000000" stroke-width="1" stroke-linecap="square"/>
<polyline points="334,124 334,84 376,84" fill="none" stroke="#000000" stroke-width="1" stroke-linecap="square"/>
<text x="466" y="155" fill="#232629" font-size="16" font-family="Helvetica" > Haemorhous mexicanus</text>
<polyline points="418,165 418,147 460,147" fill="none" stroke="#000000" stroke-width="1" stroke-linecap="square"/>
<text x="466" y="191" fill="#232629" font-size="16" font-family="Helvetica" > Spinus psaltrias</text>
<polyline points="418,166 418,183 460,183" fill="none" stroke="#000000" stroke-width="1" stroke-linecap="square"/>
<polyline points="334,125 334,165 418,165" fill="none" stroke="#000000" stroke-width="1" stroke-linecap="square"/>
<polyline points="292,171 292,124 334,124" fill="none" stroke="#000000" stroke-width="1" stroke-linecap="square"/>
<text x="466" y="227" fill="#232629" font-size="16" font-family="Helvetica" > Passer domesticus</text>
<polyline points="292,172 292,219 460,219" fill="none" stroke="#000000" stroke-width="1" stroke-linecap="square"/>
<polyline points="250,213 250,171 292,171" fill="none" stroke="#000000" stroke-width="1" stroke-linecap="square"/>
<text x="466" y="263" fill="#232629" font-size="16" font-family="Helvetica" > Hirundo rustica</text>
<polyline points="250,214 250,255 460,255" fill="none" stroke="#000000" stroke-width="1" stroke-linecap="square"/>
<polyline points="208,265 208,213 250,213" fill="none" stroke="#000000" stroke-width="1" stroke-linecap="square"/>
<text x="466" y="299" fill="#232629" font-size="16" font-family="Helvetica" > Thryomanes bewickii</text>
<polyline points="376,318 376,291 460,291" fill="none" stroke="#000000" stroke-width="1" stroke-linecap="square"/>
<text x="466" y="335" fill="#232629" font-size="16" font-family="Helvetica" > Toxostoma curvirostre</text>
<polyline points="418,345 418,327 460,327" fill="none" stroke="#000000" stroke-width="1" stroke-linecap="square"/>
<text x="466" y="371" fill="#232629" font-size="16" font-family="Helvetica" > Turdus migratorius</text>
<polyline points="418,346 418,363 460,363" fill="none" stroke="#000000" stroke-width="1" stroke-linecap="square"/>
<polyline points="376,319 376,345 418,345" fill="none" stroke="#000000" stroke-width="1" stroke-linecap="square"/>
<polyline points="208,266 208,318 376,318" fill="none" stroke="#000000" stroke-width="1" stroke-linecap="square"/>
<polyline points="166,341 166,265 208,265" fill="none" stroke="#000000" stroke-width="1" stroke-linecap="square"/>
<text x="466" y="407" fill="#232629" font-size="16" font-family="Helvetica" > Pyrocephalus rubinus</text>
<polyline points="418,417 418,399 460,399" fill="none" stroke="#000000" stroke-width="1" stroke-linecap="square"/>
<text x="466" y="443" fill="#232629" font-size="16" font-family="Helvetica" > Contopus pertinax</text>
<polyline points="418,418 418,435 460,435" fill="none" stroke="#000000" stroke-width="1" stroke-linecap="square"/>
<polyline points="166,342 166,417 418,417" fill="none" stroke="#000000" stroke-width="1" stroke-linecap="square"/>
<polyline points="124,406 124,341 166,341" fill="none" stroke="#000000" stroke-width="1" stroke-linecap="square"/>
<text x="466" y="479" fill="#232629" font-size="16" font-family="Helvetica" > Cynanthus latirostris</text>
<polyline points="124,407 124,471 460,471" fill="none" stroke="#000000" stroke-width="1" stroke-linecap="square"/>
<polyline points="82,473 82,406 124,406" fill="none" stroke="#000000" stroke-width="1" stroke-linecap="square"/>
<text x="466" y="515" fill="#232629" font-size="16" font-family="Helvetica" > Buteo jamaicensis</text>
<polyline points="292,540 292,507 460,507" fill="none" stroke="#000000" stroke-width="1" stroke-linecap="square"/>
<text x="466" y="551" fill="#232629" font-size="16" font-family="Helvetica" > Zenaida macroura</text>
<polyline points="334,574 334,543 460,543" fill="none" stroke="#000000" stroke-width="1" stroke-linecap="square"/>
<text x="466" y="587" fill="#232629" font-size="16" font-family="Helvetica" > Columbina inca</text>
<polyline points="376,606 376,579 460,579" fill="none" stroke="#000000" stroke-width="1" stroke-linecap="square"/>
<text x="466" y="623" fill="#232629" font-size="16" font-family="Helvetica" > Streptopelia decaocto</text>
<polyline points="418,633 418,615 460,615" fill="none" stroke="#000000" stroke-width="1" stroke-linecap="square"/>
<text x="466" y="659" fill="#232629" font-size="16" font-family="Helvetica" > Columba livia</text>
<polyline points="418,634 418,651 460,651" fill="none" stroke="#000000" stroke-width="1" stroke-linecap="square"/>
<polyline points="376,607 376,633 418,633" fill="none" stroke="#000000" stroke-width="1" stroke-linecap="square"/>
<polyline points="334,575 334,606 376,606" fill="none" stroke="#000000" stroke-width="1" stroke-linecap="square"/>
<polyline points="292,541 292,574 334,574" fill="none" stroke="#000000" stroke-width="1" stroke-linecap="square"/>
<polyline points="82,474 82,540 292,540" fill="none" stroke="#000000" stroke-width="1" stroke-linecap="square"/>
<polyline points="40,580 40,473 82,473" fill="none" stroke="#000000" stroke-width="1" stroke-linecap="square"/>
<polyline points="575,679 580,679 580,695 575,695" fill="none" stroke="#000000" stroke-width="1" stroke-linecap="square"/>
<text x="596" y="691" fill="#232629" font-size="16" font-family="Helvetica" >outgroup</text>
<text x="466" y="695" fill="#232629" font-size="16" font-family="Helvetica" > Gallus gallus</text>
<line x1="40" y1="687" x2="460" y2="687" stroke="#000000" stroke-width="1" stroke-linecap="square"/>
<line x1="40" y1="580" x2="40" y2="687" stroke="#000000" stroke-width="1" stroke-linecap="square"/>
<text x="394" y="435" fill="#232629" font-size="13" font-family="Helvetica" >100</text>
<text x="394" y="651" fill="#232629" font-size="13" font-family="Helvetica" >100</text>
<text x="359" y="624" fill="#232629" font-size="13" font-family="Helvetica" >79</text>
<text x="317" y="592" fill="#232629" font-size="13" font-family="Helvetica" >95</text>
<text x="401" y="183" fill="#232629" font-size="13" font-family="Helvetica" >99</text>
<text x="401" y="52" fill="#232629" font-size="13" font-family="Helvetica" >58</text>
<text x="359" y="79" fill="#232629" font-size="13" font-family="Helvetica" >93</text>
<text x="317" y="119" fill="#232629" font-size="13" font-family="Helvetica" >95</text>
<text x="401" y="363" fill="#232629" font-size="13" font-family="Helvetica" >89</text>
<text x="275" y="166" fill="#232629" font-size="13" font-family="Helvetica" >73</text>
<text x="359" y="336" fill="#232629" font-size="13" font-family="Helvetica" >75</text>
<text x="233" y="208" fill="#232629" font-size="13" font-family="Helvetica" >43</text>
<text x="191" y="260" fill="#232629" font-size="13" font-family="Helvetica" >99</text>
<text x="275" y="558" fill="#232629" font-size="13" font-family="Helvetica" >64</text>
<text x="149" y="336" fill="#232629" font-size="13" font-family="Helvetica" >46</text>
<text x="107" y="401" fill="#232629" font-size="13" font-family="Helvetica" >24</text>
</svg>
